<svg width="144" height="32" viewBox="0 0 144 32" fill="none" xmlns="http://www.w3.org/2000/svg">
<path d="M25.2991 0H20.9181C20.411 0 20 0.408725 20 0.912913V4.61261C20 5.1168 20.411 5.52552 20.9181 5.52552H25.2991C25.8061 5.52552 26.2171 5.1168 26.2171 4.61261V0.912913C26.2171 0.408725 25.8061 0 25.2991 0Z" fill="#DA0081"/>
<path d="M51.9876 0H48.2187C47.7033 0 47.3006 0.416416 47.3006 0.912913V15.8879C47.3006 16.1922 46.898 16.3043 46.753 16.032L37.991 0.4004C37.8461 0.144144 37.5884 0 37.2823 0H31.0169C30.5015 0 30.0988 0.416416 30.0988 0.912913V24.8408C30.0988 25.3533 30.5176 25.7537 31.0169 25.7537H34.7858C35.3012 25.7537 35.7039 25.3373 35.7039 24.8408V9.41742C35.7039 9.11311 36.1066 9.001 36.2515 9.27327L45.2551 25.3694C45.4 25.6256 45.6577 25.7698 45.9638 25.7698H51.9554C52.4708 25.7698 52.8735 25.3533 52.8735 24.8569V0.912913C52.8735 0.4004 52.4547 0 51.9554 0H51.9876Z" fill="#200020"/>
<path d="M74.6495 16.4164C74.6495 9.67364 70.2363 6.32629 65.3883 6.32629C59.0906 6.32629 55.4988 10.6666 55.4988 16.5285C55.4988 23.1912 60.0087 26.3623 65.2433 26.3623C70.4779 26.3623 73.5382 23.6716 74.3596 20.1801C74.4724 19.7317 74.2147 19.3313 73.5382 19.3313H70.5746C70.2363 19.3313 69.9464 19.5075 69.8015 19.8438C69.0606 21.4614 67.8687 22.3103 65.5815 22.3103C62.9884 22.3103 61.2489 20.6927 60.9912 17.4094H73.7315C74.2791 17.4094 74.6495 17.009 74.6495 16.4164ZM61.2006 13.8698C61.7482 11.4514 63.1656 10.3783 65.3077 10.3783C67.2244 10.3783 68.8673 11.4835 69.0928 13.8698H61.2006Z" fill="#200020"/>
<path d="M123.082 6.80676H119.297C118.79 6.80676 118.379 7.21549 118.379 7.71968V24.8568C118.379 25.361 118.79 25.7697 119.297 25.7697H123.082C123.589 25.7697 124 25.361 124 24.8568V7.71968C124 7.21549 123.589 6.80676 123.082 6.80676Z" fill="#200020"/>
<path d="M94.976 6.80687H91.207C90.6916 6.80687 90.289 7.22329 90.289 7.71978V8.64871C89.1615 7.3354 87.3092 6.42249 84.8772 6.42249C79.4331 6.42249 76.5501 11.3234 76.5501 16.5126C76.5501 21.0451 78.9177 26.1222 84.7644 26.1222C86.8583 26.1222 89.081 25.1292 90.289 23.7198V31.0871C90.289 31.5997 90.7077 32.0001 91.207 32.0001H94.976C95.4914 32.0001 95.894 31.5836 95.894 31.0871V7.7358C95.894 7.22329 95.4753 6.82289 94.976 6.82289V6.80687ZM86.3912 22.0861C83.9108 22.0861 82.1713 20.2763 82.1713 16.3844C82.1713 12.4926 83.9108 10.4585 86.3912 10.4585C88.8716 10.4585 90.6111 12.3324 90.6111 16.3844C90.6111 20.4365 88.8716 22.0861 86.3912 22.0861Z" fill="#200020"/>
<path d="M115.045 6.80676H111.276C110.76 6.80676 110.358 7.22318 110.358 7.71968V17.4094C110.358 20.5325 108.957 21.4454 107.169 21.4454C105.381 21.4454 103.98 20.5325 103.98 17.4094V7.71968C103.98 7.20716 103.561 6.80676 103.062 6.80676H99.2926C98.7772 6.80676 98.3745 7.22318 98.3745 7.71968V17.8098C98.3745 23.8158 101.709 26.2342 107.185 26.2342C112.661 26.2342 115.995 23.7998 115.995 17.8098V7.71968C115.995 7.20716 115.576 6.80676 115.077 6.80676H115.045Z" fill="#200020"/>
</svg>
